<svg id="레이어_1" data-name="레이어 1" xmlns="http://www.w3.org/2000/svg" viewBox="0 0 445.51 378.89"><defs><style>.cls-1{fill:#fff;}</style></defs><title>대지 1</title><path class="cls-1" d="M357.7,264.94c-1.28,5.07-2.17,9.84-3.73,14.39-1.8,5.29-3.68,8-10.17,12.13A38.84,38.84,0,0,1,339,293a26.1,26.1,0,0,1-10.85.05c-8.64-2.16-17.24-4.46-25.93-6.4a22.94,22.94,0,0,1-9.75-4.34c-.66.63-1.29,1.18-1.85,1.78a13.39,13.39,0,0,1-1,1.28c-2.7,2.6-5.48,5.11-8.14,7.75-2.35,2.33-4.5,4.86-6.87,7.17-2.07,2-4.1,4.26-6.55,5.71-3.7,2.18-10.06.83-12.4-1.64-4.61-4.85-9.44-9.49-14.18-14.22l-23.94-24H165.21a55.58,55.58,0,0,1-21.39-4A49.11,49.11,0,0,1,129.13,253a68.45,68.45,0,0,1-10.36-11.86c-3.66-5.32-5.63-11.32-7.11-17.47a61.71,61.71,0,0,1-1.34-14.41q.08-38.53,0-77.08a55.34,55.34,0,0,1,11.28-34.3,51.15,51.15,0,0,1,13.26-12.1,54.92,54.92,0,0,1,10.07-5,43.61,43.61,0,0,1,13-3.24c1.17-.07,2.32-.44,3.49-.48,1.5-.06,3,.08,4.5.11,1.71,0,3.42.13,5.13.1,5-.06,10-.38,15-.17,2.25.09,4.43.44,6.7-.06a16.61,16.61,0,0,1,3.86,0h41.84c1.7,0,3.43.06,5.14.06h15.66l5.44-.06h25.6c1.71,0,3.42.06,5.13.07s3.61,0,5.42,0h10.24a27.6,27.6,0,0,0,4.81.06,14.4,14.4,0,0,1,6.06,0,10.55,10.55,0,0,0,2.75,0c2.25-2.09,4-4.16,6.19-5.67A18.74,18.74,0,0,1,344.52,68a142.81,142.81,0,0,1,15.71,3.44c7.37,1.85,14.82,3.42,22.19,5.29,3.83,1,7.72,1.8,11.09,4.19,3.82,2.71,6.75,6,7.81,10.64a28.07,28.07,0,0,1,1.07,6.63,31.25,31.25,0,0,1-1.35,7.24c-.89,3.32-1.9,6.6-3.06,9.83a10.93,10.93,0,0,0-.26,6.33,29.61,29.61,0,0,1,.87,6.35c.1,16.74.11,33.47.12,50.21,0,12.3.15,24.62-.15,36.92a42.43,42.43,0,0,1-3.28,15.67c-1.13,2.68-2.36,5.28-3.7,7.85A47.75,47.75,0,0,1,377.34,255a60.22,60.22,0,0,1-18.7,9.17A5.57,5.57,0,0,0,357.7,264.94ZM343.08,75.5a13,13,0,0,0-12.7,9.29,75.49,75.49,0,0,0-2.14,9.39c-1.06,6-1.91,12-2.93,18-.94,5.48-2,10.94-3,16.4-.49,2.62-1.12,5.22-1.58,7.85-1,5.56-1.87,11.13-2.87,16.68-.58,3.26-1.39,6.49-1.92,9.75-.81,5-1.37,10-2.21,14.93q-1.41,8.22-3.15,16.39a19.81,19.81,0,0,0,.51,9.49,11.23,11.23,0,0,0,5.78,7.37,38.13,38.13,0,0,0,7.79,3c5.89,1.59,11.83,3.07,17.81,4.29,4.81,1,9.58,1,13.75-2.39a17.84,17.84,0,0,0,5.39-8.29c2.1-6,3.91-12,5.83-18.07a.74.74,0,0,1,.05-.32c.94-3.41,1.82-6.84,2.84-10.23,1.41-4.71,2.93-9.39,4.4-14.09,1-3.37,2.08-6.75,3.13-10.12q3.25-10.44,6.54-20.88c2.21-7.07,4.43-14.14,6.6-21.22,1.22-4,2.64-8,3.46-12,1-4.93-.1-10.24-5.25-13.08a33.4,33.4,0,0,0-6.1-2.82c-3.37-1.06-6.84-1.8-10.29-2.61q-12.66-3-25.34-5.91C346,76,344.55,75.78,343.08,75.5Zm8.62,180.31-.26-.05v-1.3c0-3.46-.77-6.53-3.46-9a14.62,14.62,0,0,0-6.37-3.63c-9.44-2.47-18.85-5.06-28.36-7.19a15.1,15.1,0,0,0-11.16,2,12.61,12.61,0,0,0-5.52,7.64c-1.81,5.93-3.2,12-4.55,18a14,14,0,0,0,0,5.48c.45,2.52,1.09,5.18,3.14,6.92a18.83,18.83,0,0,0,7.53,4.23c8.54,2.1,17.05,4.28,25.62,6.27a20.26,20.26,0,0,0,7.63.72c6-1,9.63-5,11.41-10.65,1.06-3.36,1.79-6.83,2.56-10.27.67-3.12,1.2-6.17,1.79-9.22ZM273.65,198.1a36.48,36.48,0,0,0,5.42-.56c7.56-2,12.19-6.9,14-14.47a18.92,18.92,0,0,0,.41-4.11c0-1.27-.31-2.55-.35-3.82-.17-4.87-2.71-8.54-6.07-11.65a14.45,14.45,0,0,0-6.41-3.57,28.77,28.77,0,0,0-9.61-.67c-5.33.54-9.86,2.64-13,7.27-4.31,6.29-4.64,13-2.32,20a16.41,16.41,0,0,0,5.68,7.61A17.72,17.72,0,0,0,273.65,198.1ZM162,159.09a29.68,29.68,0,0,0-5.49.43c-7.14,1.89-11.5,6.65-13.69,13.63-.78,2.48-.18,4.86-.2,7.29a17.16,17.16,0,0,0,3.75,10.71,15.37,15.37,0,0,0,8.22,5.88,24.38,24.38,0,0,0,15.2-.34,16.27,16.27,0,0,0,7.09-4.88c4.84-5.85,5.67-12.7,3.62-19.71a17.4,17.4,0,0,0-13.08-12.51A33.93,33.93,0,0,0,162,159.09Zm56.39.14H215.2c-4.73,0-8.61,2.26-11.7,5.38a16.53,16.53,0,0,0-4.92,10.62c-.09,1.4,0,2.81-.07,4.2a17.88,17.88,0,0,0,11.24,17.21,27.48,27.48,0,0,0,8.86,1.37,18,18,0,0,0,12.44-4.41c2.45-2.16,4.64-4.72,5.42-7.88,1.22-4.94,1.43-10-.47-14.91a17,17,0,0,0-10.31-10.42,15.91,15.91,0,0,0-7.28-1.16Z" transform="translate(-31.85 -67.83)"/><path class="cls-1" d="M409.75,380.72a3.35,3.35,0,0,0,1.07.57c4.75.52,8,3.49,10.08,7.29a15.36,15.36,0,0,1,1.44,11.57,16.44,16.44,0,0,1-8.06,10,14.13,14.13,0,0,1-9.7,1.52,45.75,45.75,0,0,1-4.76-1.28c-3.81-3.08-7.23-6.17-7.92-11.25H117.26a13.09,13.09,0,0,1-6.9,10.4,15,15,0,0,1-10.19,2.21c-9-1.66-13.3-6.52-13.72-15.59a14.74,14.74,0,0,1,11.7-15.08c8.86-2,16.07,2.17,19.24,11.51,2.23,1.14,4.65,1,7.14.8,1.79-.18,3.61,0,5.41,0s3.43-.07,5.14-.07h10.24l5.11-.05h5.44c1.82,0,3.4.06,5.1.07s3.43,0,5.14,0H186.9c1.6,0,3.2-.07,4.8-.08h5.75l4.8.05h5.44c1.7,0,3.4.05,5.11.06H249c1.72,0,3.4-.05,5.1-.06h5.44l5.11.05h10.24c1.7,0,3.43.06,5.14.07h10.55a22.39,22.39,0,0,1,4.48-.14,14.92,14.92,0,0,0,6.38,0,23.24,23.24,0,0,1,4-.25l-6.58-4.1,7-14.47c1.85.19,3.25,1.5,4.5,2.66,2.86,2.64,6.44,3.45,10,4.15a25.21,25.21,0,0,0,7.1.07c4.33-.39,7-3.36,7.7-8.18.14-1,.15-2.09.21-3-2.74,1-5.51,2-8.32,2.89a10.39,10.39,0,0,1-3.79.56c-4.58-.38-9.19-.5-13.33-3.09a22.79,22.79,0,0,1-9.68-11.31,30.33,30.33,0,0,1-1.46-17.42c.4-1.89.78-3.78,1.3-5.63a22.2,22.2,0,0,1,8-11.46,21.34,21.34,0,0,1,8.64-4.15c2-.43,4-.88,6-1.17a14.06,14.06,0,0,1,3.55,0c2.76.3,5.5.72,8.41,1.11.25-.81.48-1.59.76-2.5H352c0,3.7.34,7.3-.17,10.93a8.09,8.09,0,0,0-.22,2.55c.63,3.43-.07,6.83-.05,10.25s0,6.69,0,10c0,1.17.29,2.33.33,3.51.06,1.49,0,3,0,4.49v5.75c0,.31.18.64.15.94-.49,5-.21,10.08-2.1,14.91-1.76,4.53-4.24,8.43-8.4,11.11a3.67,3.67,0,0,0-.7.72c2.73.15,5.47.34,8.22.42,1.28,0,2.56-.2,3.85-.24,1.6,0,3.2,0,4.8,0l5.44.06h5.11c1.7,0,3.62,0,5.44-.06h4.8c1.6,0,3.27.42,4.81.13a14.27,14.27,0,0,1,6.37,0,8.67,8.67,0,0,0,2.16,0l1.32-5.07c1.7-1.7,3.28-3.85,5.38-5.22s4.52-1.84,7.5-3c-5.29.31-8-3.07-10.69-5.44-2.77,1.47-5.29,2.84-7.84,4.15-4.64,2.4-9.72,2.29-14.57,1.64a16.58,16.58,0,0,1-12.36-7.94c-3-4.89-4.17-10.2-4.78-15.85-.87-8.08-.37-16.15-.41-24.22,0-3.73.52-7.45.83-11.37l17.54-1.2a4,4,0,0,1,.29,1.37c-.84,5.41-2,10.76-1.93,16.3.05,2.34-.35,4.69-.49,7a58.05,58.05,0,0,0,1.59,15.87l2.53,3.49c4,1.4,6.78.36,9-2.72a20.37,20.37,0,0,0,3.07-6.3,63.51,63.51,0,0,0,2.51-17.11c.13-5.69.51-11.37.8-17.4l17.87-.6a12.93,12.93,0,0,1,.12,2.78,122.33,122.33,0,0,0-2,19.19c-.13,4.71-.92,9.4-1,14.11-.06,2.63.7,5.27,1,7.44,2.52,2.28,4.7.79,7.22.52,0,5.32.12,10.52-.31,15.76l-4.28,1.05c-.09-.11-.19-.21-.14-.15Zm-94.22-42c-.37.57-.73,1.11-1.06,1.66-3.85,6.35-.93,14.22,4.4,16.95,7.36,3.78,15.06-1.56,16.22-8.39.66-3.85.12-7.9.12-11.93-7-3.25-13.44-3.48-19.68,1.7ZM102.58,388.53c-5.51-.12-8.25,3.38-8.32,8.07a7.46,7.46,0,0,0,7.3,7.44c4.89.07,8.61-3.41,8.44-8.14C109.88,392.32,106.29,387.9,102.58,388.53Zm297.83,3.3c-2.07,4.39-.94,8.08,2.33,11.23,6.58,1.7,9.18,1.05,11.19-3,1.7-3.43,1.53-7.46-1.49-9.65a9.61,9.61,0,0,0-5-2c-3.11-.28-4.89,1.81-7,3.37Z" transform="translate(-31.85 -67.83)"/><path class="cls-1" d="M53,377.52l-1.33,3.12-15.74-1.58c0-2.45-.06-4.59,0-6.72.06-1.6.31-3.2.43-4.8.42-5.35.93-10.7,1.2-16.06.23-4.48.12-9,.25-13.47.07-2,.46-4,.56-6.07.28-5.81.48-11.61.72-17.42.06-.6.14-1.2.26-1.8l-4.63.71c-1-5.41-1.89-10.62-2.87-16.11,3.37-.72,6.48-1.5,9.63-2.06A106.17,106.17,0,0,1,64,293.91a39.11,39.11,0,0,1,12,1.95c2,.72,4.08,1.29,6.09,2,6,2.13,10.67,6,14.74,10.69a34.06,34.06,0,0,1,6,10.24c1.67,4.3,2.07,8.76,2.88,13.17.23,1.21-.3,2.55-.18,3.8a51.36,51.36,0,0,1-1.06,14.63,38.14,38.14,0,0,1-8.8,18.36,30.48,30.48,0,0,1-7.55,6.45c-3.63,2-7.5,3.82-11.77,4.19a73.82,73.82,0,0,1-10.92.6c-3.5-.23-6.94-1.29-10.4-2C54.35,377.88,53.75,377.7,53,377.52Zm3.49-67.26c0,3.66.13,6.87,0,10.07-.31,6-.82,12-1.18,18-.28,4.61-.45,9.22-.69,13.83,0,.52-.26,1-.31,1.57a40.73,40.73,0,0,0-.16,8.26c3.35,1,6.34,2.25,9.66,2a11,11,0,0,1,2.21.37,18.84,18.84,0,0,0,14.25-3.89c3.84-3,6-7.32,7.31-11.87a46.83,46.83,0,0,0,1.33-17.79,19.29,19.29,0,0,0-5.59-11.68c-4.37-4.63-9.92-7-16.08-8.15a43.87,43.87,0,0,0-5.1-.64c-1.71-.17-3.42-.08-5.64-.08Z" transform="translate(-31.85 -67.83)"/><path class="cls-1" d="M173.23,321.55l.88-4,16.18,2.7a3.37,3.37,0,0,1,.06,1c-1.54,4.64-1.58,9.51-2.18,14.28q-.87,5.7-1.17,11.47a52.44,52.44,0,0,0,.69,10.91c.68,3.68,3,6.13,7.53,6.06-.78,5.64-1.52,11.06-2.26,16.4-7.08.79-11.45-1-17.43-7.23a51.68,51.68,0,0,1-4.49,3.43,26.17,26.17,0,0,1-8.34,3.3c-7,1.44-13.72,1.13-20-2.42a25.88,25.88,0,0,1-12.92-17.64A34,34,0,0,1,131.67,339a28.69,28.69,0,0,1,7.76-10.48,31.6,31.6,0,0,1,6.62-4.54,36,36,0,0,1,23.42-3.48C170.62,320.7,171.73,321.12,173.23,321.55Zm-1.94,16a5,5,0,0,0-1.12-.71c-6.83-1.69-13.43-1.48-19.41,2.76a12.36,12.36,0,0,0-2.67,2.78,15.18,15.18,0,0,0-3.22,7.93c-.34,4.28.2,8.3,3.82,11.38,3.16,2.69,6.72,3.13,10.58,2.59,2.47-.34,4.9-.91,6.64-2.86s3.24-3.94,4.55-5.55c.3-6.52.54-12.49.83-18.29Z" transform="translate(-31.85 -67.83)"/><path class="cls-1" d="M433.16,357.16c1.78,5.41,6,7.61,10.88,8.58,8.32,1.68,15.67-.57,21.89-6.42a36.68,36.68,0,0,1,3.14-2.4c2.55,3.55,5.07,7,7.55,10.51a11.77,11.77,0,0,1,.74,1.71c-.93.73-1.83,1.43-2.71,2.15a47.35,47.35,0,0,1-8.57,5.71,37.82,37.82,0,0,1-13.27,3.62,40.44,40.44,0,0,1-16-1.4,28.27,28.27,0,0,1-10.51-5.36,26.86,26.86,0,0,1-7.68-9.75,30.48,30.48,0,0,1-1.55-5.55,32.8,32.8,0,0,1,2.23-21,29.67,29.67,0,0,1,20-17.29c5.13-1.41,10.39-1.3,15.67-.82a24.45,24.45,0,0,1,11.41,4,18.07,18.07,0,0,1,8.49,14.49,15.46,15.46,0,0,1-2.57,9.77c-3,4.42-7.39,6.71-12.29,8.23a51.1,51.1,0,0,1-16.85,2.15C439.92,358,436.64,357.49,433.16,357.16Zm25.45-16.55c.55-3.46-.1-4.61-2.89-5.77-2.24-.93-4.54-.81-6.9-.82-5.9,0-10.26,2.72-13.84,7.05a18.23,18.23,0,0,0-1.64,3.2c9.18,1.2,17.66,1.73,25.27-3.66Z" transform="translate(-31.85 -67.83)"/><path class="cls-1" d="M265.54,319.19c9-.62,16.1,3,22.37,8.34a17.36,17.36,0,0,1,5.42,7.48c.69,2,1.77,3.92,2.43,5.94a33.94,33.94,0,0,1-.17,20.65,24.71,24.71,0,0,1-11.53,15,32.21,32.21,0,0,1-16.32,4.25,40.9,40.9,0,0,1-11.19-1.08A26.23,26.23,0,0,1,240.67,368a32,32,0,0,1-4.82-15.81,38.7,38.7,0,0,1,.8-10.79c2.16-8.73,7.19-15.32,15.23-19.26C256.2,320,260.89,318.46,265.54,319.19Zm15.33,30.88c-.31-5.09-1.63-8.75-5.1-11.76s-7.46-3.57-11.69-3.37a9.42,9.42,0,0,0-4.26,1.33c-6.36,3.76-9.27,9.61-8,17.16a13.68,13.68,0,0,0,2.88,6.72c3.83,4.56,9,5.44,14.33,4.74,5-.66,9.09-3.35,10.61-8.63C280.28,354,280.56,351.66,280.87,350.07Z" transform="translate(-31.85 -67.83)"/><path class="cls-1" d="M216.49,361.69c4.76.75,5.75-3.75,8.72-5.83,3.45,4.95,5,10.72,8.34,15.92-3.77,3.65-7.56,7.24-13,8.34a18.85,18.85,0,0,1-11.36-.7,14.63,14.63,0,0,1-7.92-8.06,46.66,46.66,0,0,1-3-11.43c-1.6-9.54-1-19.11-1-28.66,0-4.59.72-9.18,1.1-13.77v-1.29c.45-6.31.9-12.63,1.4-18.94a15.52,15.52,0,0,1,.71-2.59h17.34c-.1.79-.18,1.37-.25,2-.32,2.67-.66,5.32-.94,8-.59,5.62-1.2,11.25-1.71,16.88-.19,2.14-.16,4.3-.19,6.46,0,2.87-.44,5.73-.14,8.62.12,1.14-.53,2.36-.38,3.49.87,6.59-.37,13.35,1.68,19.84C216.07,360.42,216.24,360.92,216.49,361.69Z" transform="translate(-31.85 -67.83)"/><path class="cls-1" d="M351.58,411.26h11a4.64,4.64,0,0,1,1.83,3.46c.67,4.44,1.34,8.88,2,13.32a13.07,13.07,0,0,0,.86,2.17c1.41-6.65,2.06-12.82,3.76-18.95,4-.19,7.61-.19,11.06-.05a5.83,5.83,0,0,1,1.78,4c.58,5.21,1.23,10.41,1.88,15.61.55,4.34,1.12,8.68,1.7,13.16l-.88,1.66c-1.36.86-5.75.72-9.11-.25-.93-2.2-.81-4.74-1-7.24s-.56-5.11-.88-7.92c-1.26,5.1-1.56,10.25-3.4,14.86-2.83,1.61-5.68,1-8.25,1.13a4.43,4.43,0,0,1-2.92-3.43c-.4-1.44-.66-2.92-.92-4.4-.39-2.2-.72-4.42-1.15-7.1-1.62,2.4-.85,4.7-1.16,6.81s-.53,4.25-.81,6.57a2.65,2.65,0,0,1-2.76,1.53c-2.47-.23-5.24.78-7.31-1.64.67-5.64,1.19-11.28,2-16.87S349.85,416.64,351.58,411.26Z" transform="translate(-31.85 -67.83)"/><path class="cls-1" d="M109.46,319.83h16.25c.53,3.38-.68,6.62-.44,9.91s0,6.47,0,9.71v20c0,3.31,0,6.47.1,9.71s.37,6.55.56,9.65c-2,1.63-4,1.33-5.85,1a17.49,17.49,0,0,0-6.37,0,23.88,23.88,0,0,1-4.63.06c-.26-2.69-.69-5.12-.7-7.56q-.09-20.22,0-40.46c0-3.64.35-7.29.57-10.93A4,4,0,0,1,109.46,319.83Z" transform="translate(-31.85 -67.83)"/><path class="cls-1" d="M150,414.58c-.83,1.69-.4,3.67-2.16,4.89a7.18,7.18,0,0,1-5.18-.2,14.85,14.85,0,0,0-2.79-.72c-2.41-.5-4.49-.07-6,2.18.52,1.72,2.19,1.92,3.47,2.51,2.43,1.13,5,2,7.42,3.11,5.22,2.31,7.28,8.13,5.29,13.44-1.73,4.64-5.51,5.63-9.62,6.39-1.36.25-2.76.35-4.31.54-2.35-.37-4.91-.69-7.42-1.19s-4.66-1.2-5.27-4.19c.55-1.68.47-3.73,2-5.19,1.56-.72,2.93-.2,4.32.51a14.32,14.32,0,0,0,8.64,1.57l1.81-1.9c-.36-1.75-1.59-2-2.66-2.43-2.19-.88-4.45-1.61-6.59-2.61-4.79-2.23-7.74-5.5-7.65-10.84a9,9,0,0,1,5-8.12,12.38,12.38,0,0,1,3.93-1.35,31.59,31.59,0,0,1,13.41.28c1,.27,2,.58,3.16.89Z" transform="translate(-31.85 -67.83)"/><path class="cls-1" d="M327.84,424.61c.48,2.57,1.75,4.84-.53,7-3.36,1-7.2-.71-10.68,1.22v4.4a18.93,18.93,0,0,0,2.59.44c2.26.07,4.52,0,6.79.06,1.66,0,1.66.06,3.28,1.65v5.16a4.89,4.89,0,0,1-4,1.62c-5.07,0-10.14,0-15.2-.08a28,28,0,0,1-4.44-.82c-.1-1.17-.23-2-.23-2.83V415.27c0-1.41-.08-2.82,1.19-4h21.5c1.74,2.29,1.91,4.6.44,7.58-2.63.46-5.43.17-8.2.21-2,0-3.58.64-4.28,2.83l1,1.91C320.57,424.68,324.19,423.41,327.84,424.61Z" transform="translate(-31.85 -67.83)"/><path class="cls-1" d="M239.05,414.74c-.32,1.53-.63,3-.89,4.22a3.77,3.77,0,0,1-4.69.69,10.71,10.71,0,0,0-7.82-.69,3.21,3.21,0,0,0-2.41,1.94c.82,2,2.77,2.21,4.42,2.87,2.48,1,5,2,7.42,3,4.88,2,5.79,8.64,4.56,12.21-.38,1.11-.89,2.18-1.35,3.32-.86.61-1.69,1.29-2.61,1.84a12.13,12.13,0,0,1-7,2.13c-1.84-.08-3.68-.08-5.51,0-3.36.17-6.32-1-9.37-2.56l-1-2.18a6.92,6.92,0,0,1,2.34-5.08,7.91,7.91,0,0,1,5.64.81,11.05,11.05,0,0,0,6.53.94l1.93-1.7a3.31,3.31,0,0,0,0-.77c-.45-1.38-1.59-1.94-2.84-2.41-2.91-1.12-5.9-2.07-8.67-3.46-4.19-2.11-5.37-6-5-10.35.34-4,2.78-6.51,6.38-7.78a24.47,24.47,0,0,1,12.41-1c1,.16,1.91.24,2.88.33C236.57,411.34,238.3,412.2,239.05,414.74Z" transform="translate(-31.85 -67.83)"/><path class="cls-1" d="M165.94,411.85a10.11,10.11,0,0,1,2.65-.67c2.95.17,6-.82,8.69.7,2.52,3.11,2.44,7.23,4.94,10.5,2.25-3.35,3.08-7.06,4.95-10.57,3.42-1.1,6.93-.91,10.92-.19a17.1,17.1,0,0,1-.81,3.3c-2.38,4.69-4.8,9.36-7.31,14a17.4,17.4,0,0,0-2.39,8.9c.06,2.36,0,4.73,0,7.08-3.12,2.06-6.39.94-9.25,1.31a4,4,0,0,1-1.85-3.6V439.7c0-7.1-.15-7.48-3.62-13.72-1.94-3.47-3.8-7-5.63-10.52A33,33,0,0,1,165.94,411.85Z" transform="translate(-31.85 -67.83)"/><path class="cls-1" d="M257.5,418.45V412a5.43,5.43,0,0,1,1.76-.77h26.21c1.67,2.51,1.29,5,.75,7.54l-7.88,1c-1.48,2.66-1.41,5.08-1.16,7.58a46.5,46.5,0,0,1,.05,5.41c0,1.5-.41,3.07-.07,4.48a13.56,13.56,0,0,1-.45,7.75c-3,2.34-6.21,1.07-9.78.43a27.25,27.25,0,0,1-.44-3.37c-.05-4.85,0-9.7,0-14.56v-4.2c-.07-3.12-1-4-4.05-4.1-1,0-1.94.06-2.91,0A12,12,0,0,1,257.5,418.45Z" transform="translate(-31.85 -67.83)"/><path class="cls-1" d="M109.51,309.83c-.82-2.52-.47-5.18-.25-7.83s.38-5.12.56-7.65c2.14-.64,12.37-.72,16.55-.13,1.15,5.2-.93,10.33-.29,15.45C123.4,310.32,113,310.4,109.51,309.83Z" transform="translate(-31.85 -67.83)"/><path class="cls-1" d="M101.7,391.7a5.93,5.93,0,0,1,4.71,3.14c.68,2.69-1,4.31-2.73,5.78a4.86,4.86,0,0,1-5.41-1.95l-.75-3C98,393.43,99.57,392.3,101.7,391.7Z" transform="translate(-31.85 -67.83)"/><path class="cls-1" d="M407.2,400.85c-2.4-.42-4-1.64-4.48-3.85s1.14-3.77,2.85-5.17h3.06a6.25,6.25,0,0,1,3.07,4.39C410.76,399.45,410.59,399.63,407.2,400.85Z" transform="translate(-31.85 -67.83)"/><path class="cls-1" d="M256.15,350.2c.2-6.87,7.08-11.59,12.2-10,4.22,1.34,6.64,3.78,7.47,7.87,1.27,6.2-2.77,11.62-9,12.56-2.73.42-8.41-2.56-9.36-5.29A52.72,52.72,0,0,1,256.15,350.2Z" transform="translate(-31.85 -67.83)"/></svg>